<!DOCTYPE svg PUBLIC "-//W3C//DTD SVG 1.1//EN" "http://www.w3.org/Graphics/SVG/1.1/DTD/svg11.dtd">
<!-- Uploaded to: SVG Repo, www.svgrepo.com, Transformed by: SVG Repo Mixer Tools -->
<svg fill="#4B4B4B" height="64px" width="64px" version="1.1" id="Layer_1" xmlns="http://www.w3.org/2000/svg" xmlns:xlink="http://www.w3.org/1999/xlink" viewBox="0 0 512 512" xml:space="preserve" stroke="#4B4B4B">
<g id="SVGRepo_bgCarrier" stroke-width="0"/>
<g id="SVGRepo_tracerCarrier" stroke-linecap="round" stroke-linejoin="round"/>
<g id="SVGRepo_iconCarrier"> <g> <g> <path d="M430.584,0H218.147v144.132c0,9.54-7.734,17.274-17.274,17.274H56.741v325.917c0,13.628,11.049,24.677,24.677,24.677 h349.166c13.628,0,24.677-11.049,24.677-24.677V24.677C455.261,11.049,444.212,0,430.584,0z M333.321,409.763H192.675 c-9.54,0-17.274-7.734-17.274-17.274s7.734-17.274,17.274-17.274h140.646c9.54,0,17.274,7.734,17.274,17.274 S342.861,409.763,333.321,409.763z M333.321,328.502H192.675c-9.54,0-17.274-7.734-17.274-17.274 c0-9.54,7.734-17.274,17.274-17.274h140.646c9.54,0,17.274,7.734,17.274,17.274C350.595,320.768,342.861,328.502,333.321,328.502z M333.321,247.243H192.675c-9.54,0-17.274-7.734-17.274-17.274s7.734-17.274,17.274-17.274h140.646 c9.54,0,17.274,7.734,17.274,17.274S342.861,247.243,333.321,247.243z"/> </g> </g> <g> <g> <path d="M183.389,0c-6.544,0-12.82,2.599-17.448,7.229L63.968,109.198c-4.628,4.628-7.229,10.904-7.229,17.448v0.211h126.86V0 H183.389z"/> </g> </g> </g>
</svg>